<?xml version="1.0" standalone="no"?>
<!DOCTYPE svg PUBLIC "-//W3C//DTD SVG 20010904//EN"
 "http://www.w3.org/TR/2001/REC-SVG-20010904/DTD/svg10.dtd">
<svg version="1.0" xmlns="http://www.w3.org/2000/svg"
 width="16.000000pt" height="16.000000pt" viewBox="0 0 16.000000 16.000000"
 preserveAspectRatio="xMidYMid meet">
<metadata>
Created by potrace 1.11, written by Peter Selinger 2001-2013
</metadata>
<g transform="translate(0.000000,16.000000) scale(0.006154,-0.006154)"
fill="#000000" stroke="none">
<path d="M305 2586 c-151 -38 -265 -158 -295 -311 -8 -43 -10 -326 -8 -1010
l3 -950 23 -58 c45 -111 133 -195 246 -234 48 -17 114 -18 1031 -18 916 0 983
1 1025 18 113 45 209 142 247 250 17 49 18 114 18 1027 0 913 -1 978 -18 1026
-39 113 -123 201 -234 246 l-58 23 -965 2 c-744 1 -976 -1 -1015 -11z m555
-772 c89 -50 134 -129 147 -261 l6 -63 -105 0 -106 0 -4 55 c-6 68 -32 107
-80 119 -87 22 -167 -31 -206 -135 -25 -68 -62 -314 -62 -415 0 -42 6 -90 14
-109 26 -61 111 -83 195 -49 38 15 39 16 55 97 24 124 27 117 -54 117 l-71 0
6 33 c3 17 9 52 13 77 l8 45 183 3 183 2 -6 -27 c-10 -48 -26 -157 -26 -175 0
-16 11 -18 89 -18 l89 0 4 -62 c4 -51 9 -65 31 -84 85 -73 208 -8 211 111 1
60 -25 91 -123 145 -164 91 -231 177 -231 295 0 93 23 155 79 217 71 77 143
110 252 116 125 6 211 -28 264 -106 l23 -33 12 65 12 66 359 0 c281 0 359 -3
359 -12 0 -7 -5 -48 -12 -90 l-11 -78 -128 0 c-92 0 -128 -3 -131 -12 -3 -7
-38 -208 -79 -445 l-74 -433 -107 0 c-60 0 -108 4 -108 8 0 10 136 799 146
845 l6 27 -112 0 c-101 0 -111 -2 -106 -17 2 -10 6 -38 8 -63 l3 -45 -107 -3
-108 -3 0 31 c0 42 -24 96 -48 109 -52 28 -128 0 -160 -58 -47 -84 -14 -143
118 -212 100 -51 148 -94 185 -160 27 -49 30 -63 30 -144 0 -78 -4 -97 -28
-147 -77 -156 -266 -225 -449 -162 -61 20 -120 75 -158 144 -25 47 -30 51 -30
28 0 -50 -19 -78 -79 -117 -81 -52 -164 -75 -281 -75 -84 -1 -101 2 -152 27
-155 76 -201 228 -158 522 33 228 76 340 163 434 79 83 157 112 292 108 90 -2
105 -5 155 -33z"/>
</g>
</svg>
